<?xml version="1.0" encoding="UTF-8"?>
<svg id="Layer_1" xmlns="http://www.w3.org/2000/svg" version="1.1" viewBox="0 0 101 101">
  <!-- Generator: Adobe Illustrator 29.8.1, SVG Export Plug-In . SVG Version: 2.1.1 Build 2)  -->
  <defs>
    <style>
      .st0 {
        fill: #cc4141;
        fill-rule: evenodd;
      }
    </style>
  </defs>
  <path class="st0" d="M34.6,33.3c-.5,0-1,.1-1.4.2h-.4c-1,.2-2.1.3-3.1.4-1,0-2.1,0-3.1,0-.3,0-.6,0-1,0-2.5,0-5-.4-7.3-1.2-2.1-.7-4-1.8-5.8-3.3-1.5-1.3-2.8-2.8-3.9-4.5-1.8-2.9-3.1-6.1-3.7-9.5,0-.3-.1-.5-.2-.8,0-.1,0-.3-.1-.4,0,0-.1,0-.2,0,0,.2-.2.4-.3.6-.2.4-.4.9-.6,1.3-1.8,4.4-2.4,9.1-1.8,14,.2,1.5.6,2.9,1.1,4.3,0,.2.1.4.2.6.5,1.5,1.3,2.9,2.1,4.2v.2c1.6,2.3,3.3,4.1,5.3,5.8,1.5,1.2,3.1,2.3,4.7,3.3.2.1.4.2.5.3,2.1,1.4,4.3,2.4,6.6,3.3.3.1.6.3.9.4v14.1s7.9-6.1,7.9-6.1l7.6,25c.2.7.7,1.2,1.4,1.3l11.9,2.7,11.8-2.7c.7-.2,1.2-.7,1.4-1.3l7.6-24.9,7.7,6v-15c1.9-.8,3.7-1.7,5.4-2.8.2-.1.4-.2.5-.3,1.6-1,3.2-2.1,4.7-3.3,2-1.6,3.7-3.5,5.1-5.8v-.2c1-1.3,1.8-2.7,2.3-4.2,0-.2.1-.4.2-.6h0c.4-1.4.9-2.9,1.1-4.3.6-4.9,0-9.5-1.8-14-.2-.5-.4-.9-.6-1.3,0-.2-.2-.4-.3-.6,0,0-.1,0-.2,0,0,.1,0,.3-.1.4,0,.3-.2.5-.2.8-.6,3.4-1.9,6.6-3.7,9.5-1.1,1.7-2.3,3.2-3.9,4.5-1.8,1.5-3.7,2.6-5.8,3.3-2.4.8-4.9,1.2-7.3,1.2-.3,0-.6,0-1,0-1,0-2.1,0-3.1,0-.2,0-.4,0-.6,0l-19.2-5.2-17.1,4.6Z"/>
</svg>