<svg width="18" height="14" viewBox="0 0 18 14" fill="none" xmlns="http://www.w3.org/2000/svg">
<path d="M17.46 1.65332C17.5114 2.05609 17.5123 2.47033 17.4629 2.89453V2.89648C17.4506 3.0056 17.428 3.11616 17.3984 3.2334L17.292 3.61133C17.2811 3.64781 17.2699 3.68587 17.2588 3.72363L17.2578 3.72461C17.1965 3.93563 17.0838 4.12757 16.9268 4.38574L16.9033 4.42383C16.6786 4.79266 16.4007 5.10546 16.082 5.38281C15.9645 5.48475 15.8402 5.57999 15.709 5.67383L15.2939 5.95801C15.2622 5.9793 15.2294 6.00188 15.1973 6.02344H15.1963C14.945 6.19315 14.6748 6.33302 14.3857 6.46387L14.0908 6.59277C14.0372 6.61543 13.9834 6.63745 13.9297 6.65918L13.6172 6.78516V7.12207L13.6143 8.69824L13.0176 8.2168L12.4346 7.74707L12.2236 8.46484L10.8809 13.0361L9 13.4883L7.11816 13.0361L5.77637 8.46484L5.56543 7.74707L4.98242 8.2168L4.38477 8.69824L4.38281 7.12207V6.78516L4.07031 6.65918L3.90918 6.59277C3.50731 6.42297 3.13871 6.24965 2.80371 6.02344H2.80273L2.70605 5.95801C2.48798 5.81196 2.28617 5.67598 2.09961 5.53125L1.91797 5.38281C1.59928 5.10546 1.32145 4.79267 1.09668 4.42383L1.07324 4.38574C0.916154 4.12756 0.803531 3.93564 0.742188 3.72461L0.741211 3.72363L0.708008 3.61133L0.601562 3.2334C0.572026 3.11617 0.549444 3.0056 0.537109 2.89648V2.89453L0.509766 2.58594C0.490682 2.26892 0.500166 1.95792 0.539062 1.65332C0.632352 1.86042 0.737321 2.06219 0.856445 2.25684L0.857422 2.25781C1.06925 2.60278 1.32937 2.93029 1.6543 3.20801V3.20898C1.97267 3.48058 2.31718 3.69319 2.69141 3.84766L2.85352 3.91016C3.34254 4.08644 3.84034 4.16426 4.33984 4.16699H4.34082C4.39714 4.16721 4.45384 4.16746 4.51172 4.16797C4.69758 4.16966 4.90073 4.17207 5.10547 4.16211L5.10449 4.16113C5.32239 4.15155 5.53401 4.12125 5.71973 4.09375L5.78906 4.08398C5.87542 4.07146 5.96407 4.05939 6.05273 4.0459L6.08301 4.04102L6.1123 4.0332L9 3.22559L11.8877 4.0332L11.917 4.04102L11.9473 4.0459C12.0359 4.05939 12.1246 4.07147 12.2109 4.08398L12.2793 4.09375V4.09473C12.4648 4.12221 12.6768 4.1515 12.8945 4.16113V4.16211C13.0993 4.17207 13.3024 4.16966 13.4883 4.16797C13.5462 4.16746 13.6029 4.16721 13.6592 4.16699H13.6602C14.0973 4.1646 14.5331 4.10477 14.9629 3.97168L15.1465 3.91016C15.584 3.7527 15.9819 3.51934 16.3457 3.20898V3.20801C16.6706 2.9303 16.9307 2.60278 17.1426 2.25781L17.1436 2.25684C17.2626 2.0623 17.3667 1.86029 17.46 1.65332Z" stroke="white" stroke-opacity="0.98"/>
</svg>
